<?xml version="1.0" encoding="utf-8"?>
<!-- Generator: Adobe Illustrator 23.0.5, SVG Export Plug-In . SVG Version: 6.00 Build 0)  -->
<svg version="1.1" id="Слой_1" xmlns="http://www.w3.org/2000/svg" xmlns:xlink="http://www.w3.org/1999/xlink" x="0px" y="0px"
	 viewBox="0 0 80 160" style="enable-background:new 0 0 80 160;" xml:space="preserve">
<style type="text/css">
	.st0{fill:#8CC63F;}
</style>
<g>
	<g>
		<path class="st0" d="M3.44,4.34C2.43,26.02,1.46,47.97,5.69,69.39c1.82,9.17,4.65,18.39,9.83,26.27
			c5.15,7.83,12.58,13.7,21.13,17.45c10.65,4.67,22.31,6.07,33.85,6.3c1.93,0.04,1.93-2.96,0-3c-18.7-0.38-39.56-4.43-51.22-20.57
			C13.97,88.49,11,79.76,9.08,70.97c-2.22-10.18-3.15-20.6-3.43-31.01C5.34,28.08,5.89,16.2,6.44,4.34
			C6.53,2.41,3.53,2.41,3.44,4.34L3.44,4.34z"/>
	</g>
</g>
<g>
	<g>
		<path class="st0" d="M71.83,117.16c-3.68-5.61-6.63-11.66-8.73-18.03c-0.6-1.82-3.5-1.04-2.89,0.8
			c2.19,6.61,5.21,12.93,9.03,18.75C70.3,120.28,72.9,118.78,71.83,117.16L71.83,117.16z"/>
	</g>
</g>
<g>
	<g>
		<path class="st0" d="M68.45,116.9c-1.53,2.8-3.82,4.87-6.44,6.64c-2.94,1.98-5.98,3.81-8.98,5.7c-1.63,1.03-0.13,3.62,1.51,2.59
			c3.15-1.99,6.38-3.89,9.44-6.01c2.86-1.98,5.38-4.32,7.06-7.41C71.97,116.72,69.38,115.21,68.45,116.9L68.45,116.9z"/>
	</g>
</g>
</svg>
